# xmcd
#
# Track frame offsets:
#	150
#	21904
#	42048
#	60987
#	86529
#	106640
#	124603
#	144051
#	165110
#	186204
#	205470
#	224243
#	244953
#	265791
#
# Disc length: 3879 seconds
#
# Revision: 1824260214
# Processed by: cddbd v1.5.2PL0 Copyright (c) Steve Scherf et al.
# Submitted via: EZCDAudioConverter 8.0.2.1
#
DISCID=b80f250e
DTITLE=Toàn Nguyễn - Chọn Lọc 2. Vẫn Mơ Ngày Về
DYEAR=2009
DGENRE=Traditional Country
TTITLE0=Xin còn gọi mãi tên nhau
TTITLE1=Rong rêu
TTITLE2=Xin một ngày mai có nhau
TTITLE3=Trả lại một thoáng mây bay
TTITLE4=Đoản khức cuối cho em
TTITLE5=Đêm nay ai đưa em em về
TTITLE6=Nếu vắng anh
TTITLE7=Trên đỉnh mùa đông
TTITLE8=Ru con tình cũ
TTITLE9=Như đã dấu yêu
TTITLE10=Hối tiếc
TTITLE11=Mộng sầu
TTITLE12=Bài tình ca cho em
TTITLE13=Bản tình cuối
EXTD=
EXTT0=
EXTT1=
EXTT2=
EXTT3=
EXTT4=
EXTT5=
EXTT6=
EXTT7=
EXTT8=
EXTT9=
EXTT10=
EXTT11=
EXTT12=
EXTT13=
PLAYORDER=
